# xmcd
#
# Track frame offsets: 
#        150
#        24371
#        41482
#        100324
#        151013
#        155957
#        181765
#        185574
#        215803
#        251672
#
# Disc length: 3835 seconds
#
# Revision: 1
# Processed by: cddbd v1.5.2PL0 Copyright (c) Steve Scherf et al.
# Submitted via: ExactAudioCopy v1.0b6
#
DISCID=820ef90a
DTITLE=Jon Hassell - Last Night The Moon Came Dropping Its Clothes In 
DTITLE=The Street
DYEAR=2009
DGENRE=Jazz
TTITLE0=Aurora
TTITLE1=Time And Place
TTITLE2=Abu Gil
TTITLE3=Last Night The Moon Came
TTITLE4=Clairvoyance
TTITLE5=Courtrais
TTITLE6=Scintilla
TTITLE7=Northline
TTITLE8=Blue Period
TTITLE9=Light On Water
EXTD=YEAR: 2009
EXTT0=
EXTT1=
EXTT2=
EXTT3=
EXTT4=
EXTT5=
EXTT6=
EXTT7=
EXTT8=
EXTT9=
PLAYORDER=
